#!OML:ASF X:\für Bonn\!DataBase\2005_08_10_Bjorn_Final\c3d\bjorn.ASF
:FULLY-SPECIFIED
:DEGREES
33
root 0.864951 17.967 3.24188 -176.057 -0.810004 -180.698
lowerback 7.81215 1.97158 3.93343
upperback 7.11751 2.11552 -1.80196
thorax 3.26143 0.962981 -4.19442
lowerneck -16.8794 -5.67406 0.729578
upperneck 11.3888 -8.16997 2.15981
head 6.27261 -3.74672 -0.258776
rclavicle 1.81888e-014 6.95746e-016
rhumerus 74.0274 -3.02075 -79.488
rradius 10.1374
rwrist 47.4206
rhand -10.2896 11.4321
rfingers 7.12502
rthumb 15.7048 -17.9506
lclavicle 1.81888e-014 6.95746e-016
lhumerus 80.1959 -13.8455 56.6487
lradius 12.2976
lwrist -29.9927
lhand -23.9769 -9.25717
lfingers 7.12502
lthumb 2.49965 20.7079
rfemur -28.81 -7.5164 16.2686
rtibia 55.2695
rfoot -29.5144 7.13773
rtoes -20.2332
lfemur -30.248 4.14713 -19.9711
ltibia 58.5902
lfoot -24.5466 -9.62313
ltoes -27.4357
34
root 0.873026 17.838 3.27953 -176.009 -0.747016 -180.577
lowerback 8.33365 1.96636 3.96834
upperback 7.11554 2.10864 -1.7512
thorax 2.9708 0.945512 -4.17631
lowerneck -17.1383 -5.61531 0.714
upperneck 11.2766 -8.08499 2.16992
head 6.27978 -3.70408 -0.24979
rclavicle -2.3382e-014 9.74045e-015
rhumerus 74.2095 -2.85297 -78.6328
rradius 10.2495
rwrist 46.5459
rhand -10.7064 11.5784
rfingers 7.12502
rthumb 15.3033 -17.8354
lclavicle -2.3382e-014 9.74045e-015
lhumerus 79.8944 -13.835 57.1393
lradius 12.603
lwrist -30.3719
lhand -25.1801 -9.87826
lfingers 7.12502
lthumb 1.33758 20.0973
rfemur -30.0791 -7.20974 16.5063
rtibia 57.2666
rfoot -30.2315 6.39859
rtoes -21.2948
lfemur -31.6994 4.22809 -19.7586
ltibia 60.9087
lfoot -24.6091 -10.1998
ltoes -26.5012
35
root 0.878605 17.7007 3.31684 -175.981 -0.676032 -180.403
lowerback 8.87209 1.95592 4.09207
upperback 7.12658 2.09841 -1.70119
thorax 2.6902 0.929073 -4.20943
lowerneck -17.3406 -5.55807 0.693502
upperneck 11.0706 -7.99996 2.19999
head 6.24848 -3.66302 -0.230191
rclavicle -3.07744e-014 2.2239e-014
rhumerus 74.4291 -2.696 -77.7412
rradius 10.3281
rwrist 45.6198
rhand -11.2469 11.7542
rfingers 7.12502
rthumb 14.7826 -17.6985
lclavicle -3.07744e-014 2.2239e-014
lhumerus 79.595 -13.8138 57.616
lradius 12.9186
lwrist -30.8199
lhand -26.3688 -10.4865
lfingers 7.12502
lthumb 0.189584 19.4931
rfemur -31.3557 -6.90248 16.7896
rtibia 59.3149
rfoot -31.0075 5.6792
rtoes -22.4226
lfemur -33.1693 4.37875 -19.5252
ltibia 63.2842
lfoot -24.6604 -10.5932
ltoes -25.8471
36
root 0.882608 17.5546 3.35474 -175.969 -0.638549 -180.141
lowerback 9.43431 1.92785 4.32935
upperback 7.14591 2.07266 -1.63937
thorax 2.41041 0.907881 -4.29397
lowerneck -17.6199 -5.49273 0.748673
upperneck 10.902 -7.91663 2.17197
head 6.23609 -3.62307 -0.243617
rclavicle 2.06239e-015 -5.7896e-015
rhumerus 74.6498 -2.54121 -76.7191
rradius 10.3972
rwrist 44.6462
rhand -11.8891 11.8804
rfingers 7.12502
rthumb 14.1639 -17.6168
lclavicle 2.06239e-015 -5.7896e-015
lhumerus 79.3659 -13.7965 57.9794
lradius 13.2284
lwrist -31.1733
lhand -27.4192 -11.0235
lfingers 7.12502
lthumb -0.824973 18.9546
rfemur -32.6407 -6.64056 17.1656
rtibia 61.4145
rfoot -31.8234 4.95713
rtoes -23.7284
lfemur -34.6714 4.59936 -19.2333
ltibia 65.7134
lfoot -24.8021 -10.7352
ltoes -25.8171
37
root 0.886605 17.4003 3.39228 -175.963 -0.568051 -179.914
lowerback 9.99058 1.90748 4.49339
upperback 7.18099 2.05108 -1.56582
thorax 2.1476 0.884402 -4.32462
lowerneck -17.9176 -5.43344 0.725232
upperneck 10.7297 -7.83198 2.1967
head 6.23084 -3.58159 -0.228466
rclavicle 4.94477e-014 -1.11319e-014
rhumerus 74.9206 -2.34639 -75.5331
rradius 10.4319
rwrist 43.5241
rhand -12.6353 11.9861
rfingers 7.12502
rthumb 13.4448 -17.56
lclavicle 4.94477e-014 -1.11319e-014
lhumerus 79.2458 -13.736 58.0521
lradius 13.4952
lwrist -31.2264
lhand -28.4017 -11.5361
lfingers 7.12502
lthumb -1.77387 18.4363
rfemur -33.9618 -6.37331 17.4879
rtibia 63.5757
rfoot -32.5968 4.34273
rtoes -24.7889
lfemur -36.1925 4.91706 -19.0287
ltibia 68.1799
lfoot -25.0552 -10.5069
ltoes -26.6798
38
root 0.890928 17.237 3.42998 -175.974 -0.519413 -179.704
lowerback 10.5455 1.87033 4.63379
upperback 7.25027 2.00032 -1.49136
thorax 1.91844 0.84377 -4.33806
lowerneck -18.3027 -5.36065 0.683228
upperneck 10.5689 -7.73166 2.24801
head 6.24505 -3.53036 -0.202882
rclavicle 3.61291e-014 -1.43373e-014
rhumerus 75.2812 -2.17094 -74.4541
rradius 10.4205
rwrist 42.4722
rhand -13.39 12.1294
rfingers 7.12502
rthumb 12.7173 -17.4633
lclavicle 3.61291e-014 -1.43373e-014
lhumerus 79.2873 -13.6155 57.8891
lradius 13.7
lwrist -30.9998
lhand -29.1836 -11.9555
lfingers 7.12502
lthumb -2.52901 18.0093
rfemur -35.31 -6.15277 17.7844
rtibia 65.8086
rfoot -33.3365 3.86816
rtoes -25.5729
lfemur -37.7306 5.2375 -18.8651
ltibia 70.6827
lfoot -25.3393 -10.1064
ltoes -27.8406
39
root 0.895031 17.0637 3.46695 -176.001 -0.438718 -179.563
lowerback 11.0766 1.85744 4.7087
upperback 7.35722 1.96925 -1.44567
thorax 1.7433 0.810315 -4.34463
lowerneck -18.7143 -5.29934 0.662906
upperneck 10.3942 -7.64808 2.26649
head 6.25653 -3.48961 -0.192978
rclavicle -2.56556e-014 7.57867e-015
rhumerus 75.6055 -2.03289 -73.3021
rradius 10.5508
rwrist 41.2715
rhand -14.0223 12.2004
rfingers 7.12502
rthumb 12.1076 -17.4293
lclavicle -2.56556e-014 7.57867e-015
lhumerus 79.5084 -13.4897 57.4603
lradius 13.8431
lwrist -30.5075
lhand -29.802 -12.228
lfingers 7.12502
lthumb -3.12622 17.7288
rfemur -36.6796 -5.93697 17.9852
rtibia 68.1075
rfoot -34.0342 3.5678
rtoes -25.9634
lfemur -39.2614 5.63932 -18.7971
ltibia 73.1979
lfoot -25.6156 -9.58163
ltoes -29.0737
40
root 0.899798 16.8813 3.50434 -176.023 -0.383422 -179.493
lowerback 11.6253 1.83076 4.6903
upperback 7.43683 1.91669 -1.41088
thorax 1.52376 0.762454 -4.30824
lowerneck -19.0629 -5.23278 0.600016
upperneck 10.2128 -7.55686 2.34867
head 6.2597 -3.443 -0.153531
rclavicle 2.43884e-014 -2.41523e-014
rhumerus 75.8181 -1.93378 -72.5292
rradius 10.8892
rwrist 40.4185
rhand -14.45 12.2753
rfingers 7.12502
rthumb 11.6952 -17.3783
lclavicle 2.43884e-014 -2.41523e-014
lhumerus 79.7359 -13.3635 56.9096
lradius 13.9362
lwrist -29.8009
lhand -30.3073 -12.488
lfingers 7.12502
lthumb -3.61424 17.4611
rfemur -38.0977 -5.78862 18.0848
rtibia 70.4786
rfoot -34.7013 3.39525
rtoes -26.4026
lfemur -40.8252 6.04246 -18.8251
ltibia 75.7229
lfoot -25.8511 -9.03761
ltoes -30.081
41
root 0.904763 16.6936 3.54007 -176.055 -0.30796 -179.422
lowerback 12.1754 1.80742 4.6662
upperback 7.51102 1.86785 -1.38273
thorax 1.29928 0.716108 -4.27531
lowerneck -19.3994 -5.16396 0.559787
upperneck 10.0503 -7.46767 2.41744
head 6.26521 -3.39766 -0.121847
rclavicle -4.33599e-015 9.14409e-015
rhumerus 75.9225 -1.85016 -72.0048
rradius 11.421
rwrist 39.6002
rhand -14.6473 12.2781
rfingers 7.12502
rthumb 11.5049 -17.3862
lclavicle -4.33599e-015 9.14409e-015
lhumerus 80.0004 -13.2361 56.221
lradius 13.9821
lwrist -28.944
lhand -30.7055 -12.6829
lfingers 7.12502
lthumb -3.99873 17.2593
rfemur -39.5392 -5.63346 18.1658
rtibia 72.8988
rfoot -35.3054 3.31041
rtoes -26.9398
lfemur -42.3661 6.41285 -18.8364
ltibia 78.2273
lfoot -25.7585 -9.08848
ltoes -28.7948
42
root 0.909434 16.5006 3.57496 -176.103 -0.250653 -179.386
lowerback 12.7096 1.78405 4.60997
upperback 7.61482 1.80843 -1.35977
thorax 1.11352 0.662727 -4.22708
lowerneck -19.6962 -5.09792 0.49073
upperneck 9.80749 -7.3775 2.51511
head 6.2404 -3.35364 -0.0738991
rclavicle -2.68359e-015 1.74434e-014
rhumerus 76.0441 -1.83834 -71.7542
rradius 12.0136
rwrist 39.0592
rhand -14.6887 12.3651
rfingers 7.12502
rthumb 11.465 -17.3014
lclavicle -2.68359e-015 1.74434e-014
lhumerus 80.3229 -13.0981 55.3656
lradius 14.0308
lwrist -27.8393
lhand -31.0287 -12.7799
lfingers 7.12502
lthumb -4.31086 17.1562
rfemur -41.0013 -5.53396 18.1727
rtibia 75.3745
rfoot -35.8543 3.50809
rtoes -26.9931
lfemur -43.8809 6.71462 -18.8702
ltibia 80.7132
lfoot -25.6516 -9.22293
ltoes -27.3439
43
root 0.914627 16.3037 3.6092 -176.208 -0.193342 -179.365
lowerback 13.2976 1.76434 4.56748
upperback 7.72333 1.75195 -1.377
thorax 0.908058 0.609894 -4.22982
lowerneck -19.9646 -5.03788 0.480307
upperneck 9.59277 -7.31418 2.62398
head 6.21844 -3.3196 -0.034123
rclavicle -1.35422e-014 1.55549e-014
rhumerus 76.0748 -1.85592 -71.5781
rradius 12.6861
rwrist 38.4729
rhand -14.566 12.3648
rfingers 7.12502
rthumb 11.5833 -17.2951
lclavicle -1.35422e-014 1.55549e-014
lhumerus 80.5134 -12.983 54.8855
lradius 14.162
lwrist -27.0902
lhand -31.2013 -12.8882
lfingers 7.12502
lthumb -4.4775 17.0445
rfemur -42.421 -5.42983 18.1308
rtibia 77.886
rfoot -36.3452 3.89744
rtoes -26.8242
lfemur -45.3197 7.01393 -18.9032
ltibia 83.1573
lfoot -25.477 -9.622
ltoes -24.9102
44
root 0.919728 16.105 3.64173 -176.312 -0.135628 -179.343
lowerback 13.8478 1.74447 4.4906
upperback 7.85613 1.68474 -1.35878
thorax 0.745813 0.549569 -4.17241
lowerneck -20.2186 -4.96495 0.436462
upperneck 9.30346 -7.21947 2.70423
head 6.16942 -3.27677 0.00685891
rclavicle -1.61513e-015 1.03368e-014
rhumerus 76.3499 -1.93534 -72.0411
rradius 12.9894
rwrist 38.5324
rhand -14.4231 12.5534
rfingers 7.12502
rthumb 11.7211 -17.0987
lclavicle -1.61513e-015 1.03368e-014
lhumerus 80.564 -12.7817 54.733
lradius 14.431
lwrist -26.5842
lhand -31.2712 -13.0392
lfingers 7.12502
lthumb -4.545 16.8921
rfemur -43.868 -5.34736 18.0549
rtibia 80.433
rfoot -36.7456 4.61947
rtoes -26.1923
lfemur -46.7372 7.31086 -18.9375
ltibia 85.566
lfoot -25.3922 -9.94495
ltoes -22.7482
